# xmcd CD database file
#
# Track frame offsets:
#	150
#	27428
#	52846
#	73452
#	97012
#	117197
#	142559
#	169832
#	191717
#	219638
#	243748
#	264105
#
# Disc length: 3817 seconds
#
# Revision: 0
# Processed by: cddbd v1.5.1PL0 Copyright (c) Steve Scherf et al.
# Submitted via: CDex 1.51
#
DISCID=ad0ee70c
DTITLE=Steven Boyd - Night Moods
DYEAR=2004
DGENRE=Jazz
TTITLE0=Steven Boyd - Night Moods - 01 - Can't Wait To See You
TTITLE1=Steven Boyd - Night Moods - 02 - Night Moods
TTITLE2=Steven Boyd - Night Moods - 03 - Images
TTITLE3=Steven Boyd - Night Moods - 04 - How Can You Tell
TTITLE4=Steven Boyd - Night Moods - 05 - Rat Race
TTITLE5=Steven Boyd - Night Moods - 06 - Let The Truth Be Told
TTITLE6=Steven Boyd - Night Moods - 07 - Jarri
TTITLE7=Steven Boyd - Night Moods - 08 - Feel The Love
TTITLE8=Steven Boyd - Night Moods - 09 - 1 Man 1 Sound
TTITLE9=Steven Boyd - Night Moods - 10 - Lonely Nights
TTITLE10=Steven Boyd - Night Moods - 11 - Simple Things
TTITLE11=Steven Boyd - Night Moods - 12 - Family Song
EXTD=YEAR: 2004
EXTT0=
EXTT1=
EXTT2=
EXTT3=
EXTT4=
EXTT5=
EXTT6=
EXTT7=
EXTT8=
EXTT9=
EXTT10=
EXTT11=
PLAYORDER=
